<svg class="svg-1657742382232-6942" width="100%" height="100%" viewBox="0 0 4960 1024" xmlns="http://www.w3.org/2000/svg" style="display: inline-block; vertical-align: middle;"><path d="M1328.576 857.248c54.976 75.68 85.728 100.256 133.12 103.296h7.584v37.344h-296.992v-37.344l6.048 1.536c35.776 1.536 68.064-12.8 68.064-32.224 0-11.264-3.008-15.84-32.256-54.72l-117.984-159.584-109.408 141.696c-32.256 41.952-39.84 53.216-39.84 64.448 0 22.496 32.256 40.416 72.096 40.416l9.088-1.536v37.344h-245.056v-37.344h10.080c55.968-5.088 100.32-35.808 159.328-114.56l123.552-160.128-131.584-180.544c-75.136-101.248-94.304-117.632-143.2-120.704h-10.592v-37.344h280.32v37.344h-7.552c-36.8 0-52.96 8.192-52.96 29.152 0 13.312 1.504 14.848 28.224 48.576l103.36 140.16 97.312-122.24c24.704-33.76 32.256-45.024 32.256-54.72 0-24.544-29.248-40.416-73.6-40.416h-6.048v-37.344h235.968v37.344h-4.544c-44.384 1.536-79.648 24.032-143.168 96.672l-118.496 146.784zM1823.2 322.24c180.512 0 316.128 149.856 316.64 350.88 0 201.536-134.624 349.856-316.128 349.856-72.608 0-156.32-30.656-208.224-77.216-69.6-62.88-109.408-162.624-109.408-278.752 0-194.88 138.656-344.736 317.152-344.736zM1821.664 988.192c136.128 0 196.64-96.672 196.128-309.44 0-217.376-62.016-319.168-195.136-319.168-132.608 0-196.16 101.76-196.16 314.56 0 217.376 59.488 314.048 195.136 314.048zM2469.568 968.768c35.264 0 63.52-20.992 91.232-64.448l22.208 14.336c-29.248 64.448-88.224 104.864-154.784 104.864-54.976 0-106.368-32.224-130.080-80.8-19.168-37.344-22.176-67.52-22.176-190.272v-367.264h-85.728v-37.344c84.192-1.536 153.76-86.944 166.88-203.072h23.712v203.072h179.968v37.344h-179.488v391.808c0 85.408 3.008 116.096 14.624 140.128 13.12 32.224 42.848 51.648 73.6 51.648zM2907.232 775.392c-3.040 173.92 1.504 183.648 88.224 185.696h14.624v37.344h-320.16v-37.344h23.68c44.352 1.536 65.056-6.656 78.176-30.688 7.552-12.8 9.056-22.528 9.056-53.216 1.504-8.192 1.504-24.032 1.504-51.648v-247.040c0-166.24-7.040-179.008-92.768-177.472h-19.168v-36.832c66.56-6.656 172.416-29.152 200.672-41.952h16.16zM3420.48 981.536c93.312 0 157.824-50.144 183.040-141.152h32.256c-33.76 119.168-119.52 183.616-246.56 183.616-173.952 0-301.024-143.2-301.024-343.2 0-203.040 137.664-358.048 314.624-358.048 109.408 0 206.72 59.84 206.72 125.824 0 32.224-19.168 54.72-45.888 54.72-36.8 0-51.936-16.352-62.016-71.104-8.576-54.72-33.76-72.608-97.344-72.608-130.080 0-195.136 96.672-195.136 291.552 0 100.256 22.208 195.392 55.968 251.648 32.768 49.6 90.24 78.752 155.296 78.752zM4037.632 981.536c92.768 0 157.792-50.144 183.008-141.152h32.288c-33.76 119.168-119.488 183.616-246.56 183.616-173.952 0-300.992-143.2-300.992-343.2 0-203.040 137.632-358.048 314.624-358.048 109.408 0 206.72 59.84 206.72 125.824 0 32.224-19.168 54.72-45.888 54.72-36.768 0-51.904-16.352-61.984-71.104-8.576-54.72-33.76-72.608-97.312-72.608-130.080 0-195.136 96.672-195.136 291.552 0 100.256 22.176 195.392 55.968 251.648 32.768 49.6 90.24 78.752 155.296 78.752zM4939.136 878.208v-0.48h25.696c-3.008 83.904-48.928 135.552-122.528 135.552-64.544 0-101.856-35.808-114.976-113.056-101.856 79.296-173.92 113.056-238.976 113.056-85.728 0-147.744-57.792-147.744-138.624 0-97.184 79.648-174.432 274.784-261.376l111.936-50.144v-32.192c0-65.984-1.504-83.904-11.584-106.4-20.672-45.024-65.056-69.056-124.032-69.056-47.392 0-88.736 12.8-104.864 35.296-11.616 14.336-13.12 19.424-19.168 53.184-6.048 47.040-28.224 72.64-59.008 72.64-26.72 0-44.352-18.912-44.352-46.528 0-28.64 19.648-60.864 51.936-90.016 45.888-38.368 109.408-57.792 190.592-57.792 100.352 0 168.384 32.224 205.216 95.136 17.632 32.224 20.672 53.216 20.672 131.968v262.88c0 91.552 0 91.552 6.048 109.472 7.552 22.496 22.208 33.76 39.84 33.76 31.264 0 52.928-27.104 60.512-77.28zM4728.384 857.248v-256.256l-79.68 35.264c-122.496 55.264-186.048 124.288-186.048 208.192 0 65.984 35.328 111.008 85.728 111.008 44.352 0 108.928-35.328 180-98.208zM2802.336 153.984c0-23.040 18.656-41.952 41.856-42.464 23.2 0 41.824 18.4 41.824 41.952v0.512c0 23.52-18.624 42.464-41.824 42.464s-41.856-18.944-41.856-42.464zM131.584 462.912c-22.688 0-41.344-18.944-41.824-42.464 0-23.552 18.656-42.464 41.824-42.464 23.2 0.512 41.856 18.912 41.856 42.464s-18.656 42.464-41.856 42.464zM2767.040 192.32h-10.592c-18.144-21.472-28.224-48.576-28.224-75.712 0-64.448 51.424-116.608 114.976-116.608s114.944 52.192 114.944 116.608c0 27.104-10.080 54.24-28.224 75.712h-9.6c6.080-14.848 9.6-30.176 9.6-46.016 0-55.744-38.336-100.768-86.208-100.768-47.392 0-86.208 45.024-86.208 100.768 0 15.84 3.040 31.712 9.6 46.016zM4741.984 152.448c-36.8 31.712-83.68 49.088-132.096 50.112-51.936 0-101.856-20.448-139.648-56.768l29.76-31.712c57.472 55.232 154.272 57.792 214.304 5.632l27.712 32.736zM317.12 568.8h-29.76c-3.008 39.872-3.008 57.792-3.008 78.752 0 107.904 18.144 197.952 47.392 248.064 34.272 54.72 85.728 85.408 147.744 85.408 85.728 0 152.288-45.024 187.552-128.896h33.76c-30.752 103.328-127.040 170.816-242.016 170.816-168.416 0-295.456-147.808-295.456-344.736 0-38.848 5.536-75.168 14.112-109.44h-9.088s-103.36 2.048-149.728-86.944c0 0-13.6-28.64-18.656-50.144h26.72c7.584 20.992 18.176 36.32 29.248 49.632 51.424 57.28 131.104 50.624 131.104 50.624v0.544c43.36-126.848 143.2-210.208 265.696-210.208 128.576 0 228.928 92.064 245.056 220.448l0.992 8.704c0.512 6.144 2.016 11.264 2.016 17.408h-383.68zM321.152 428.64c-16.128 25.568-23.2 50.144-30.752 107.904h283.36c3.008-14.336 3.008-22.496 3.008-33.76 0-86.944-51.936-146.784-128.576-146.784-51.936 0-97.312 27.616-127.072 72.64z" fill="rgb(232, 203, 145)" style="fill: rgb(232, 203, 145);"></path></svg>